<svg width="36" height="36" viewBox="0 0 36 36" fill="none" xmlns="http://www.w3.org/2000/svg">
<path d="M29.6249 16.5V15C29.6249 9.34314 29.6249 6.51473 27.8675 4.75736C26.1101 3 23.2817 3 17.6249 3H16.1251C10.4682 3 7.63983 3 5.88248 4.75734C4.12512 6.51468 4.12509 9.34308 4.12505 14.9999L4.125 21C4.12494 26.6568 4.12493 29.4852 5.88222 31.2426C7.63958 32.9998 10.4681 33 16.1249 33" stroke="#F36D00" stroke-width="2" stroke-linecap="round" stroke-linejoin="round"/>
<path d="M10.875 10.5H22.8749M10.875 18H22.8749" stroke="#F36D00" stroke-width="2" stroke-linecap="round"/>
<path d="M19.875 31.2402V33H21.6351C22.2492 33 22.5562 33 22.8322 32.8857C23.1084 32.7712 23.3254 32.5542 23.7597 32.1201L30.9951 24.8841C31.4046 24.4746 31.6093 24.2698 31.7188 24.049C31.9272 23.6287 31.9272 23.1354 31.7188 22.7151C31.6093 22.4941 31.4046 22.2894 30.9951 21.8799C30.5855 21.4704 30.3807 21.2656 30.1598 21.1561C29.7395 20.948 29.246 20.948 28.8257 21.1561C28.6049 21.2656 28.3999 21.4704 27.9904 21.8799L20.755 29.1159C20.3208 29.55 20.1037 29.767 19.9894 30.043C19.875 30.3192 19.875 30.6261 19.875 31.2402Z" stroke="#F36D00" stroke-width="2" stroke-linejoin="round"/>
</svg>
