<svg width="36" height="36" viewBox="0 0 36 36" fill="none" xmlns="http://www.w3.org/2000/svg">
<path d="M16.6498 4.50293C11.1765 4.51277 8.3103 4.64714 6.47864 6.47878C4.50195 8.4554 4.50195 11.6367 4.50195 17.9994C4.50195 24.3621 4.50195 27.5434 6.47864 29.52C8.45531 31.4967 11.6367 31.4967 17.9997 31.4967C24.3624 31.4967 27.5439 31.4967 29.5206 29.52C31.3522 27.6885 31.4866 24.8224 31.4965 19.3492" stroke="#F36D00" stroke-width="2" stroke-linecap="round" stroke-linejoin="round"/>
<path d="M30.7204 5.27657L22.3965 13.5776M30.7204 5.27657C29.9794 4.53481 24.988 4.60396 23.9328 4.61896M30.7204 5.27657C31.4613 6.01834 31.3923 11.0152 31.3773 12.0716" stroke="#F36D00" stroke-width="2" stroke-linecap="round" stroke-linejoin="round"/>
</svg>
